<svg xmlns="http://www.w3.org/2000/svg" width="21" height="22" viewBox="0 0 21 22">
  <defs>
    <style>
      .cls-1 {
        fill: #78a22f;
        fill-rule: evenodd;
      }
    </style>
  </defs>
  <path id="search" class="cls-1" d="M1708.44,76.87a5.215,5.215,0,1,1-5.49,5.208A5.293,5.293,0,0,1,1708.44,76.87Zm6.3,10.5,5.98,5.731a0.915,0.915,0,0,1,0,1.313l-1.32,1.312a0.95,0.95,0,0,1-1.33,0l-6.2-6.3-0.14.1a8.548,8.548,0,0,1-3.27.641,8.332,8.332,0,0,1-8.46-8.15,8.225,8.225,0,0,1,8.46-8.02,8.119,8.119,0,0,1,8.34,8.02,8.019,8.019,0,0,1-1.94,5.254Z" transform="translate(-1700 -74)"/>
</svg>
